<svg width="35" height="24" viewBox="0 0 35 24" fill="none" xmlns="http://www.w3.org/2000/svg">
<g clip-path="url(#clip0_6_638)">
<path d="M16.5 6V17.5C16.5 19.71 14.71 21.5 12.5 21.5C10.29 21.5 8.5 19.71 8.5 17.5V5C8.5 3.62 9.62 2.5 11 2.5C12.38 2.5 13.5 3.62 13.5 5V15.5C13.5 16.05 13.05 16.5 12.5 16.5C11.95 16.5 11.5 16.05 11.5 15.5V6H10V15.5C10 16.88 11.12 18 12.5 18C13.88 18 15 16.88 15 15.5V5C15 2.79 13.21 1 11 1C8.79 1 7 2.79 7 5V17.5C7 20.54 9.46 23 12.5 23C15.54 23 18 20.54 18 17.5V6H16.5Z" fill="#1D2D35"/>
</g>
<path d="M29.0718 10.7305H30.1997C30.7368 10.7305 31.1348 10.5962 31.3936 10.3276C31.6523 10.0591 31.7817 9.70264 31.7817 9.2583C31.7817 8.82861 31.6523 8.49414 31.3936 8.25488C31.1396 8.01562 30.7881 7.896 30.3389 7.896C29.9336 7.896 29.5942 8.0083 29.3208 8.23291C29.0474 8.45264 28.9106 8.74072 28.9106 9.09717H26.7939C26.7939 8.54053 26.9429 8.04248 27.2407 7.60303C27.5435 7.15869 27.9634 6.81201 28.5005 6.56299C29.0425 6.31396 29.6382 6.18945 30.2876 6.18945C31.4155 6.18945 32.2993 6.46045 32.939 7.00244C33.5786 7.53955 33.8984 8.28174 33.8984 9.229C33.8984 9.71729 33.7495 10.1665 33.4517 10.5767C33.1538 10.9868 32.7632 11.3018 32.2798 11.5215C32.8804 11.7363 33.3271 12.0586 33.6201 12.4883C33.918 12.918 34.0669 13.4258 34.0669 14.0117C34.0669 14.959 33.7202 15.7183 33.0269 16.2896C32.3384 16.8608 31.4253 17.1465 30.2876 17.1465C29.2231 17.1465 28.3516 16.8657 27.6729 16.3042C26.999 15.7427 26.6621 15.0005 26.6621 14.0776H28.7788C28.7788 14.478 28.9277 14.8052 29.2256 15.0591C29.5283 15.313 29.8994 15.4399 30.3389 15.4399C30.8418 15.4399 31.2349 15.3081 31.5181 15.0444C31.8062 14.7759 31.9502 14.4219 31.9502 13.9824C31.9502 12.918 31.3643 12.3857 30.1924 12.3857H29.0718V10.7305Z" fill="#1D2D35"/>
<defs>
<clipPath id="clip0_6_638">
<rect width="24" height="24" fill="white"/>
</clipPath>
</defs>
</svg>
